<svg
  width="118"
  height="24"
  viewBox="0 0 118 24"
  version="1.1"
  xmlns="http://www.w3.org/2000/svg"
  fill="#f2f2f2"
>
  <path
    d="M15.999,8.071c0.607,0.351 1.164,0.78 1.657,1.273l-1.414,1.414c-1.086,-1.086 -2.586,-1.758 -4.242,-1.758c-0.225,0 -0.447,0.012 -0.665,0.037c1.066,-0.658 2.322,-1.037 3.665,-1.037c0.339,0 0.672,0.024 0.999,0.071Z"
  />
  <path
    d="M10.002,10.101c0.978,0.199 1.853,0.684 2.533,1.364l-1.414,1.414c-0.543,-0.543 -1.293,-0.879 -2.121,-0.879c-0.113,0 -0.224,0.006 -0.334,0.018c0.337,-0.713 0.79,-1.361 1.336,-1.917Z"
  />
  <path
    d="M4,15c0,-6.071 4.929,-11 11,-11c3.036,0 5.786,1.232 7.777,3.223l-1.414,1.414c-1.629,-1.629 -3.879,-2.637 -6.363,-2.637c-4.967,0 -9,4.033 -9,9l-2,0Z"
  />
  <path
    d="M8,19c0,-0.53 -0.211,-1.039 -0.586,-1.414c-0.375,-0.375 -0.884,-0.586 -1.414,-0.586l-2,0c-1.105,0 -2,0.895 -2,2l0,1l6,0l0,-1Z"
  />
  <path
    d="M35.438,18.094l-0.001,-0.985l1.274,-0.218l-0,-9.008l-2.578,-0l-0.227,1.578l-1.156,-0l-0,-2.742l9.453,-0l0,2.742l-1.141,-0l-0.234,-1.578l-2.578,-0l0,9.008l1.273,0.218l0,0.985l-4.086,-0Z"
  />
  <path
    d="M44.836,21.508c-0.12,-0 -0.276,-0.015 -0.469,-0.043c-0.193,-0.029 -0.341,-0.056 -0.445,-0.082l0.156,-1.211c0.089,0.01 0.211,0.019 0.367,0.027c0.157,0.008 0.263,0.012 0.321,0.012c0.328,-0 0.595,-0.125 0.8,-0.375c0.206,-0.25 0.398,-0.591 0.575,-1.023l0.367,-0.891l-2.992,-7.164l-0.907,-0.125l0,-0.992l3.547,-0l0,0.992l-1.023,0.156l1.648,4.227l0.399,1.101l0.047,0l1.953,-5.328l-1.078,-0.156l-0,-0.992l3.476,-0l0,0.992l-0.875,0.125l-3.328,8.633c-0.156,0.406 -0.345,0.769 -0.566,1.089c-0.222,0.321 -0.493,0.572 -0.813,0.754c-0.32,0.183 -0.707,0.274 -1.16,0.274Z"
  />
  <path
    d="M52.078,21.344l0,-0.992l1.195,-0.219l0,-9.281l-1.273,-0.219l0,-0.992l2.594,-0l0.14,1.031c0.282,-0.386 0.624,-0.68 1.028,-0.883c0.403,-0.203 0.871,-0.305 1.402,-0.305c0.698,0 1.294,0.189 1.789,0.567c0.495,0.377 0.873,0.906 1.133,1.586c0.26,0.679 0.391,1.475 0.391,2.386l-0,0.165c-0,0.812 -0.132,1.523 -0.395,2.132c-0.263,0.61 -0.639,1.085 -1.129,1.426c-0.489,0.341 -1.078,0.512 -1.766,0.512c-0.52,-0 -0.977,-0.087 -1.371,-0.262c-0.393,-0.174 -0.727,-0.433 -1.004,-0.777l0,2.914l1.344,0.219l0,0.992l-4.078,-0Zm4.633,-4.289c0.729,-0 1.281,-0.266 1.656,-0.797c0.375,-0.531 0.563,-1.222 0.563,-2.07l-0,-0.165c-0,-0.645 -0.084,-1.214 -0.25,-1.707c-0.167,-0.492 -0.416,-0.878 -0.746,-1.16c-0.331,-0.281 -0.744,-0.422 -1.239,-0.422c-0.437,0 -0.812,0.099 -1.125,0.297c-0.312,0.198 -0.565,0.469 -0.758,0.813l0,4.117c0.193,0.349 0.445,0.618 0.754,0.809c0.31,0.19 0.692,0.285 1.145,0.285Z"
  />
  <path
    d="M65.828,18.258c-0.781,-0 -1.461,-0.179 -2.039,-0.535c-0.578,-0.357 -1.025,-0.853 -1.34,-1.489c-0.315,-0.635 -0.472,-1.369 -0.472,-2.203l-0,-0.343c-0,-0.803 0.165,-1.52 0.496,-2.153c0.33,-0.633 0.77,-1.133 1.32,-1.5c0.549,-0.367 1.15,-0.551 1.801,-0.551c0.76,0 1.397,0.157 1.91,0.469c0.513,0.313 0.9,0.751 1.16,1.317c0.26,0.565 0.391,1.23 0.391,1.996l-0,0.961l-5.485,-0l-0.023,0.039c0.01,0.541 0.105,1.022 0.285,1.441c0.18,0.419 0.439,0.749 0.777,0.988c0.339,0.24 0.745,0.36 1.219,0.36c0.521,-0 0.978,-0.075 1.371,-0.223c0.393,-0.148 0.733,-0.353 1.02,-0.613l0.601,1c-0.302,0.291 -0.702,0.538 -1.199,0.738c-0.497,0.201 -1.095,0.301 -1.793,0.301Zm-2.211,-5.235l3.899,0l-0,-0.203c-0,-0.406 -0.072,-0.769 -0.215,-1.09c-0.143,-0.32 -0.357,-0.572 -0.641,-0.757c-0.284,-0.185 -0.639,-0.278 -1.066,-0.278c-0.344,0 -0.656,0.101 -0.938,0.301c-0.281,0.201 -0.513,0.473 -0.695,0.817c-0.182,0.343 -0.302,0.734 -0.359,1.171l0.015,0.039Z"
  />
  <path
    d="M73.25,18.094l-2.227,-7.352l-0.945,-0.109l0,-0.992l3.492,-0l0,0.992l-1.039,0.172l1.164,4.211l0.266,1l0.047,-0l0.344,-1l1.835,-5.375l1.297,-0l1.75,5.359l0.375,1.188l0.047,-0l0.367,-1.188l1.18,-4.203l-1.062,-0.164l-0,-0.992l3.414,-0l-0,0.992l-0.938,0.133l-2.187,7.328l-1.461,-0l-1.711,-5.078l-0.406,-1.36l-0.047,0.008l-0.399,1.352l-1.836,5.078l-1.32,-0Z"
  />
  <path
    d="M84.477,18.094l-0,-0.985l1.273,-0.218l0,-6.039l-1.273,-0.219l-0,-0.992l2.648,-0l0.133,1.078l0.015,0.148c0.24,-0.432 0.536,-0.771 0.887,-1.015c0.352,-0.245 0.754,-0.368 1.207,-0.368c0.162,0 0.327,0.015 0.496,0.043c0.17,0.029 0.291,0.056 0.364,0.082l-0.204,1.43l-1.07,-0.062c-0.406,-0.026 -0.747,0.066 -1.023,0.277c-0.276,0.211 -0.49,0.493 -0.641,0.848l0,4.789l1.273,0.218l0.001,0.985l-4.086,-0Z"
  />
  <path
    d="M91.109,18.094l0,-0.985l1.274,-0.218l-0,-6.039l-1.274,-0.219l0,-0.992l2.813,-0l-0,7.25l1.273,0.218l0,0.985l-4.086,-0Zm1.196,-10.539l-0,-1.649l1.617,0l-0,1.649l-1.617,-0Z"
  />
  <path
    d="M99.242,18.227c-0.625,-0 -1.121,-0.184 -1.488,-0.551c-0.367,-0.367 -0.551,-0.955 -0.551,-1.762l0,-5.133l-1.336,0l0,-1.14l1.336,-0l0,-2.039l1.539,-0l0,2.039l1.836,-0l0,1.14l-1.836,0l0,5.133c0,0.406 0.081,0.706 0.242,0.899c0.162,0.192 0.378,0.289 0.649,0.289c0.182,-0 0.385,-0.017 0.609,-0.051c0.224,-0.034 0.399,-0.064 0.524,-0.09l0.211,1.008c-0.224,0.067 -0.499,0.127 -0.825,0.179c-0.325,0.053 -0.629,0.079 -0.91,0.079Z"
  />
  <path
    d="M105.656,18.258c-0.781,-0 -1.461,-0.179 -2.039,-0.535c-0.578,-0.357 -1.025,-0.853 -1.34,-1.489c-0.315,-0.635 -0.472,-1.369 -0.472,-2.203l-0,-0.343c-0,-0.803 0.165,-1.52 0.496,-2.153c0.331,-0.633 0.771,-1.133 1.32,-1.5c0.55,-0.367 1.15,-0.551 1.801,-0.551c0.76,0 1.397,0.157 1.91,0.469c0.513,0.313 0.9,0.751 1.16,1.317c0.261,0.565 0.391,1.23 0.391,1.996l-0,0.961l-5.485,-0l-0.023,0.039c0.01,0.541 0.105,1.022 0.285,1.441c0.18,0.419 0.439,0.749 0.778,0.988c0.338,0.24 0.744,0.36 1.218,0.36c0.521,-0 0.978,-0.075 1.371,-0.223c0.394,-0.148 0.733,-0.353 1.02,-0.613l0.601,1c-0.302,0.291 -0.701,0.538 -1.199,0.738c-0.497,0.201 -1.095,0.301 -1.793,0.301Zm-2.211,-5.235l3.899,0l-0,-0.203c-0,-0.406 -0.072,-0.769 -0.215,-1.09c-0.143,-0.32 -0.357,-0.572 -0.641,-0.757c-0.284,-0.185 -0.639,-0.278 -1.066,-0.278c-0.344,0 -0.656,0.101 -0.938,0.301c-0.281,0.201 -0.513,0.473 -0.695,0.817c-0.182,0.343 -0.302,0.734 -0.359,1.171l0.015,0.039Z"
  />
  <path
    d="M110.063,18.094l-0.001,-0.985l1.274,-0.218l-0,-6.039l-1.273,-0.219l-0.001,-0.992l2.649,-0l0.133,1.078l0.015,0.148c0.24,-0.432 0.536,-0.771 0.887,-1.015c0.352,-0.245 0.754,-0.368 1.207,-0.368c0.162,0 0.327,0.015 0.496,0.043c0.169,0.029 0.291,0.056 0.364,0.082l-0.204,1.43l-1.07,-0.062c-0.406,-0.026 -0.747,0.066 -1.023,0.277c-0.276,0.211 -0.49,0.493 -0.641,0.848l0,4.789l1.273,0.218l0,0.985l-4.085,-0Z"
  />
</svg>
