<svg width="24" height="24" viewBox="0 0 24 24" version="1.1" xmlns="http://www.w3.org/2000/svg" fill="#f2f2f2">
  <path
    d="M15.999,8.071c0.607,0.351 1.164,0.78 1.657,1.273l-1.414,1.414c-1.086,-1.086 -2.586,-1.758 -4.242,-1.758c-0.225,-0 -0.447,0.012 -0.665,0.037c1.066,-0.658 2.322,-1.037 3.665,-1.037c0.339,-0 0.672,0.024 0.999,0.071Z"
  />
  <path
    d="M10.002,10.101c0.978,0.199 1.853,0.684 2.533,1.364l-1.414,1.414c-0.543,-0.543 -1.293,-0.879 -2.121,-0.879c-0.113,-0 -0.224,0.006 -0.334,0.018c0.337,-0.713 0.79,-1.361 1.336,-1.917Z"
  />
  <path
    d="M4,15c0,-6.071 4.929,-11 11,-11c3.036,-0 5.786,1.232 7.777,3.223l-1.414,1.414c-1.629,-1.629 -3.879,-2.637 -6.363,-2.637c-4.967,-0 -9,4.033 -9,9l-2,0Z"
  />
  <path
    d="M8,19c0,-0.53 -0.211,-1.039 -0.586,-1.414c-0.375,-0.375 -0.884,-0.586 -1.414,-0.586l-2,0c-1.105,0 -2,0.895 -2,2l-0,1l6,0l-0,-1Z"
  />
</svg>
